# xmcd
#
# Track frame offsets: 
#        150
#        26769
#        51487
#        72951
#        94678
#        110688
#        127049
#        154987
#        175996
#        189740
#        216496
#
# Disc length: 3145 seconds
#
# Revision: 5
# Processed by: cddbd v1.5.2PL0 Copyright (c) Steve Scherf et al.
# Submitted via: ExactAudioCopyFreeDBPlugin 1.0
#
DISCID=ac0c470b
DTITLE=TOSCHO TODOROVIC [BLUES COMPANY] - Back by Popular Demand
DYEAR=1999
DGENRE=Blues
TTITLE0=A Place To Rest
TTITLE1=Chanel No.5
TTITLE2=Back By Popular Demand
TTITLE3=Gimme Me Your Number
TTITLE4=Bo Diddely's Groove
TTITLE5=Kidney Stew
TTITLE6=Forgotten Mines
TTITLE7=Love Her With A Feelin'
TTITLE8=One Good Reason
TTITLE9=Tears On A Postcard
TTITLE10=Tappin' My Feed
EXTD=YEAR: 1999
EXTT0=
EXTT1=
EXTT2=
EXTT3=
EXTT4=
EXTT5=
EXTT6=
EXTT7=
EXTT8=
EXTT9=
EXTT10=
PLAYORDER=
